<?xml version="1.0" encoding="UTF-8"?>
<svg width="22px" height="26px" viewBox="0 0 22 26" version="1.1" xmlns="http://www.w3.org/2000/svg" xmlns:xlink="http://www.w3.org/1999/xlink">
    <!-- Generator: Sketch 55.1 (78136) - https://sketchapp.com -->
    <title>css3-alt-brands</title>
    <desc>Created with Sketch.</desc>
    <g id="Page-1" stroke="none" stroke-width="1" fill="none" fill-rule="evenodd" opacity="0.95">
        <g id="Desktop-" transform="translate(-631.000000, -392.000000)" fill="#FFFFFF" fill-rule="nonzero">
            <g id="Top" transform="translate(-2.000000, -370.000000)">
                <g id="Group-2" transform="translate(505.000000, 447.000000)">
                    <g id="Group-17">
                        <g id="Group-6" transform="translate(10.000000, 315.000000)">
                            <g id="Group-16">
                                <g id="Group-13" transform="translate(116.000000, 0.000000)">
                                    <g id="css3-alt-brands" transform="translate(2.000000, 0.000000)">
                                        <path d="M0,0 L1.95867347,22.2132653 L10.7755102,25.1428571 L19.5923469,22.2132653 L21.5510204,0 L0,0 Z M17.5719388,4.48979592 L17.302551,7.14438775 L10.8316326,9.9112245 L10.8147959,9.91683676 L17.072449,9.91683676 L16.3540816,18.1443877 L10.8428571,19.755102 L5.29795918,18.1163265 L4.93877551,13.9688775 L7.68316324,13.9688775 L7.86275511,16.1183674 L10.8147959,16.8647959 L13.8846939,16.0005102 L14.0923469,12.5433674 L4.75918368,12.5153061 L4.75918368,12.5096939 L4.74795918,12.5153061 L4.54591837,9.91683676 L10.8372449,7.29591835 L11.2020408,7.14438775 L4.30459184,7.14438775 L3.97908163,4.48979592 L17.5719388,4.48979592 Z" id="Shape"></path>
                                    </g>
                                </g>
                            </g>
                        </g>
                    </g>
                </g>
            </g>
        </g>
    </g>
</svg>