<?xml version="1.0" encoding="UTF-8"?>
<svg width="22px" height="26px" viewBox="0 0 22 26" version="1.1" xmlns="http://www.w3.org/2000/svg" xmlns:xlink="http://www.w3.org/1999/xlink">
    <!-- Generator: Sketch 55.1 (78136) - https://sketchapp.com -->
    <title>html5-brands</title>
    <desc>Created with Sketch.</desc>
    <g id="Page-1" stroke="none" stroke-width="1" fill="none" fill-rule="evenodd" fill-opacity="0.95" opacity="0.95">
        <g id="Desktop-" transform="translate(-518.000000, -392.000000)" fill="#FFFFFF" fill-rule="nonzero">
            <g id="Top" transform="translate(-2.000000, -370.000000)">
                <g id="Group-2" transform="translate(505.000000, 447.000000)">
                    <g id="Group-17">
                        <g id="Group-6" transform="translate(10.000000, 315.000000)">
                            <g id="Group-16">
                                <g id="Group-12">
                                    <g id="html5-brands" transform="translate(5.000000, 0.000000)">
                                        <path d="M0,0 L1.95867347,22.2132653 L10.747449,25.1428571 L19.5923469,22.2132653 L21.5510204,0 L0,0 Z M17.2969388,7.17806121 L6.98163264,7.17806121 L7.21173467,9.95051022 L17.0668368,9.95051022 L16.3035714,18.2790816 L10.8091837,19.7943877 L10.8091837,19.8112245 L10.747449,19.8112245 L5.20816326,18.2790816 L4.87142857,14.025 L7.5484694,14.025 L7.74489797,16.1632653 L10.747449,16.9770408 L13.7612245,16.1632653 L14.0979592,12.672449 L4.73112245,12.672449 L4.0127551,4.50102041 L17.5438775,4.50102041 L17.2969388,7.17806121 L17.2969388,7.17806121 Z" id="Shape"></path>
                                    </g>
                                </g>
                            </g>
                        </g>
                    </g>
                </g>
            </g>
        </g>
    </g>
</svg>