<?xml version="1.0" encoding="UTF-8"?>
<svg width="22px" height="22px" viewBox="0 0 22 22" version="1.1" xmlns="http://www.w3.org/2000/svg" xmlns:xlink="http://www.w3.org/1999/xlink">
    <!-- Generator: Sketch 55.1 (78136) - https://sketchapp.com -->
    <title>js-square-brands</title>
    <desc>Created with Sketch.</desc>
    <g id="Page-1" stroke="none" stroke-width="1" fill="none" fill-rule="evenodd" opacity="0.95">
        <g id="Desktop-" transform="translate(-761.000000, -392.000000)" fill="#FFFFFF" fill-rule="nonzero">
            <g id="Top" transform="translate(-2.000000, -370.000000)">
                <g id="Group-2" transform="translate(505.000000, 447.000000)">
                    <g id="Group-17">
                        <g id="Group-6" transform="translate(10.000000, 315.000000)">
                            <g id="Group-16">
                                <g id="Group-14" transform="translate(224.000000, 0.000000)">
                                    <g id="js-square-brands" transform="translate(24.000000, 0.000000)">
                                        <path d="M19.6428572,0 C20.9441964,0 22,1.05580357 22,2.35714286 L22,19.6428572 C22,20.9441964 20.9441964,22 19.6428572,22 L2.35714286,22 C1.05580357,22 0,20.9441964 0,19.6428572 L0,2.35714286 C0,1.05580357 1.05580357,0 2.35714286,0 L19.6428572,0 Z M11.9723214,17.1580357 L11.9723214,10.1013393 L9.90491072,10.1013393 L9.90491072,17.1285714 C9.90491072,18.1647322 9.47276784,18.4299107 8.79508928,18.4299107 C8.08303572,18.4299107 7.78839284,17.94375 7.46428572,17.3691964 L5.77991072,18.3857143 C6.27098216,19.421875 7.22857144,20.2763393 8.88348216,20.2763393 C10.7151786,20.2763393 11.9723214,19.2991072 11.9723214,17.1580357 Z M16.8633928,20.2763393 C18.8227678,20.2763393 20.2861607,19.2549107 20.2861607,17.3986607 C20.2861607,15.6700893 19.2991072,14.8991072 17.5410714,14.1477678 L17.0254464,13.9267857 C16.1366072,13.5388393 15.7535714,13.2883928 15.7535714,12.6696428 C15.7535714,12.16875 16.1366072,11.7857143 16.740625,11.7857143 C17.3348214,11.7857143 17.7178572,12.0361607 18.0714286,12.6696428 L19.6821428,11.6383928 C19.0044643,10.4401786 18.0616072,9.98348216 16.7455357,9.98348216 C14.9040178,9.98348216 13.7205357,11.1620536 13.7205357,12.7138393 C13.7205357,14.3982143 14.7075893,15.1986607 16.2004464,15.8321428 L16.7160714,16.053125 C17.6638393,16.4705357 18.2236607,16.7209822 18.2236607,17.428125 C18.2236607,18.0223214 17.6736607,18.4495536 16.8191964,18.4495536 C15.8026786,18.4495536 15.2232143,17.9142857 14.78125,17.1924107 L13.096875,18.1647322 C13.7008928,19.3629464 14.9433036,20.2763393 16.8633928,20.2763393 Z" id="Combined-Shape"></path>
                                    </g>
                                </g>
                            </g>
                        </g>
                    </g>
                </g>
            </g>
        </g>
    </g>
</svg>