<?xml version="1.0" encoding="UTF-8"?>
<svg width="22px" height="10px" viewBox="0 0 22 10" version="1.1" xmlns="http://www.w3.org/2000/svg" xmlns:xlink="http://www.w3.org/1999/xlink">
    <!-- Generator: Sketch 55.1 (78136) - https://sketchapp.com -->
    <title>Shape</title>
    <desc>Created with Sketch.</desc>
    <g id="Page-1" stroke="none" stroke-width="1" fill="none" fill-rule="evenodd" fill-opacity="0.95" opacity="0.95">
        <g id="Desktop-" transform="translate(-517.000000, -470.000000)" fill="#FFFFFF" fill-rule="nonzero">
            <g id="Top" transform="translate(-2.000000, -370.000000)">
                <g id="Group-2" transform="translate(505.000000, 447.000000)">
                    <g id="Group-17">
                        <g id="Group-6" transform="translate(10.000000, 315.000000)">
                            <g id="Group-16-Copy" transform="translate(0.000000, 73.000000)">
                                <g id="Group-12" transform="translate(0.000000, 5.000000)">
                                    <g id="less-brands" transform="translate(4.000000, 0.000000)">
                                        <path d="M20.6317347,3.36734694 C20.6317347,2.67704082 20.7394898,2.26959184 20.7394898,1.52877551 C20.7394898,0.377142857 20.3152041,0.00673469388 19.3757143,0.00673469388 L18.6854082,0.00673469388 L18.6854082,0.821632653 L18.897551,0.821632653 C19.3757143,0.821632653 19.480102,0.979897959 19.480102,1.56581633 C19.480102,2.11469388 19.4262245,2.66357143 19.4262245,3.3 C19.4262245,4.11489796 19.6922449,4.43142857 20.2209184,4.55602041 L20.2209184,4.60989796 C19.6888776,4.7344898 19.4262245,5.05102041 19.4262245,5.86591837 C19.4262245,6.50234694 19.480102,7.01755102 19.480102,7.60010204 C19.480102,8.20285714 19.3555102,8.36112245 18.897551,8.36112245 L18.897551,8.37795918 L18.6854082,8.37795918 L18.6854082,9.22653061 L19.3757143,9.22653061 C20.3118367,9.22653061 20.7394898,8.85612245 20.7394898,7.7044898 C20.7394898,6.94346939 20.6317347,6.55285714 20.6317347,5.86591837 C20.6317347,5.4955102 20.8607143,5.10489796 21.5510204,5.07122449 L21.5510204,4.15193878 C20.8607143,4.12836735 20.6317347,3.7377551 20.6317347,3.36734694 L20.6317347,3.36734694 Z M17.0758163,4.44489796 C16.5437755,4.2327551 16.0487755,4.10816327 16.0487755,3.75459184 C16.0487755,3.48857143 16.2609184,3.33030612 16.6515306,3.33030612 C17.0421429,3.33030612 17.3957143,3.48857143 17.7829592,3.77142857 L18.490102,2.83530612 C18.0489796,2.49857143 17.4462245,2.145 16.6313265,2.145 C15.4291837,2.145 14.6142857,2.83530612 14.6142857,3.80846939 C14.6142857,4.67387755 15.3753061,5.11836735 16.0117347,5.36418367 C16.5606122,5.57632653 17.0926531,5.75479592 17.0926531,6.10836735 C17.0926531,6.37438776 16.8805102,6.5494898 16.4023469,6.5494898 C15.9612245,6.5494898 15.5167347,6.37102041 15.0385714,6.00061224 L14.3314286,7.02765306 C14.8634694,7.46877551 15.675,7.77183673 16.3484694,7.77183673 C17.7627551,7.77183673 18.5237755,7.02765306 18.5237755,6.0544898 C18.5237755,5.08132653 17.7661224,4.67387755 17.0758163,4.44489796 L17.0758163,4.44489796 Z M4.99040816,6.44510204 C4.86581633,6.44510204 4.70755102,6.33734694 4.70755102,6.00397959 L4.70755102,0.00336734694 L2.1955102,0.00336734694 C1.23918367,0.00336734694 0.814897959,0.37377551 0.814897959,1.52540816 C0.814897959,2.28642857 0.922653061,2.71071429 0.922653061,3.36397959 C0.922653061,3.73438776 0.693673469,4.125 0.00336734694,4.15867347 L0.00336734694,5.07795918 C0.693673469,5.09479592 0.922653061,5.48540816 0.922653061,5.85581633 C0.922653061,6.50908163 0.814897959,6.89969388 0.814897959,7.66071429 C0.814897959,8.81234694 1.23918367,9.1827551 2.17867347,9.1827551 L2.86897959,9.1827551 L2.86897959,8.36785714 L2.65683673,8.36785714 C2.21571429,8.36785714 2.07428571,8.18938776 2.07428571,7.60683673 C2.07428571,7.02428571 2.12816327,6.52591837 2.12816327,5.87265306 C2.12816327,5.0577551 1.86214286,4.74122449 1.33346939,4.61663265 L1.33346939,4.5627551 C1.8655102,4.43816327 2.12816327,4.12163265 2.12816327,3.30673469 C2.12816327,2.67030612 2.07428571,2.15510204 2.07428571,1.57255102 C2.07428571,0.99 2.19887755,0.828367347 2.65683673,0.828367347 L3.13163265,0.828367347 L3.13163265,5.90632653 C3.13163265,6.9872449 3.50204082,7.69438776 4.58295918,7.69438776 C4.91969388,7.69438776 5.18571429,7.6405102 5.37765306,7.56979592 L5.19918367,6.41816327 C5.09479592,6.44510204 5.04428571,6.44510204 4.99040816,6.44510204 L4.99040816,6.44510204 Z M12.792551,4.44489796 C12.2436735,4.2327551 11.7486735,4.10816327 11.7486735,3.75459184 C11.7486735,3.48857143 11.9608163,3.33030612 12.3514286,3.33030612 C12.7420408,3.33030612 13.0956122,3.48857143 13.4828571,3.77142857 L14.19,2.83530612 C13.7488776,2.49857143 13.1461224,2.145 12.3312245,2.145 C11.1290816,2.145 10.3141837,2.83530612 10.3141837,3.80846939 C10.3141837,4.67387755 11.0752041,5.11836735 11.7116327,5.36418367 C12.2605102,5.57632653 12.792551,5.75479592 12.792551,6.10836735 C12.792551,6.37438776 12.5804082,6.5494898 12.1022449,6.5494898 C11.6611224,6.5494898 11.2166327,6.37102041 10.7384694,6.00061224 L10.0481633,7.02765306 C10.5802041,7.46877551 11.3917347,7.77183673 12.0652041,7.77183673 C13.4794898,7.77183673 14.2405213,7.02765306 14.2405213,6.0544898 C14.2438776,5.08132653 13.4828571,4.67387755 12.792551,4.44489796 L12.792551,4.44489796 Z M7.57316327,2.12816327 C6.28010204,2.12816327 5.04428571,3.20908163 5.07795918,4.90622449 C5.07795918,6.6572449 6.22959184,7.68428571 7.74826531,7.68428571 C8.38469388,7.68428571 9.09183673,7.45530612 9.64071429,7.08153061 L9.10867347,6.14540816 C8.71806122,6.37438776 8.34765306,6.48214286 7.95704082,6.48214286 C7.24989796,6.48214286 6.70102041,6.14540816 6.55959184,5.3305102 L9.76530612,5.3305102 C9.78214286,5.20591837 9.81918367,4.96010204 9.81918367,4.6772449 C9.83938776,3.2427551 9.05816327,2.12816327 7.57316327,2.12816327 L7.57316327,2.12816327 Z M6.56295918,4.35734694 C6.67071429,3.65020408 7.095,3.31346939 7.59,3.31346939 C8.22642857,3.31346939 8.47561224,3.75459184 8.47561224,4.35734694 L6.56295918,4.35734694 Z" id="Shape"></path>
                                    </g>
                                </g>
                            </g>
                        </g>
                    </g>
                </g>
            </g>
        </g>
    </g>
</svg>