<?xml version="1.0" encoding="UTF-8"?>
<svg width="22px" height="25px" viewBox="0 0 22 25" version="1.1" xmlns="http://www.w3.org/2000/svg" xmlns:xlink="http://www.w3.org/1999/xlink">
    <!-- Generator: Sketch 55.1 (78136) - https://sketchapp.com -->
    <title>node-js-brands</title>
    <desc>Created with Sketch.</desc>
    <g id="Page-1" stroke="none" stroke-width="1" fill="none" fill-rule="evenodd" fill-opacity="0.95" opacity="0.95">
        <g id="Desktop-" transform="translate(-760.000000, -465.000000)" fill="#FFFFFF" fill-rule="nonzero">
            <g id="Top" transform="translate(-2.000000, -370.000000)">
                <g id="Group-2" transform="translate(505.000000, 447.000000)">
                    <g id="Group-17">
                        <g id="Group-6" transform="translate(10.000000, 315.000000)">
                            <g id="Group-16-Copy" transform="translate(0.000000, 73.000000)">
                                <g id="node-js-brands" transform="translate(247.000000, 0.000000)">
                                    <path d="M10.9714285,24.6857143 C10.6432653,24.6857143 10.3102041,24.597551 10.0212245,24.4310204 L6.99918366,22.6432653 C6.54857144,22.3885714 6.76897959,22.3004082 6.91591838,22.2514286 C7.51836737,22.0408163 7.64081633,21.9967347 8.282449,21.6293877 C8.35102039,21.5902041 8.43918366,21.604898 8.50775509,21.6489796 L10.8293877,23.0253061 C10.9126531,23.0742857 11.0302041,23.0742857 11.1085714,23.0253061 L20.1551021,17.8040816 C20.2383673,17.755102 20.2922449,17.6571429 20.2922449,17.5591837 L20.2922449,7.11673469 C20.2922449,7.01387757 20.2383673,6.92081631 20.1502041,6.86693878 L11.1085714,1.65061224 C11.0253061,1.60163265 10.9126531,1.60163265 10.8293877,1.65061224 L1.79265306,6.87183671 C1.70448979,6.92081631 1.65061224,7.0187755 1.65061224,7.12163268 L1.65061224,17.5591837 C1.65061224,17.6571429 1.70448979,17.755102 1.79265306,17.7991837 L4.27102041,19.2293878 C5.61795918,19.9004082 6.44081633,19.1118368 6.44081633,18.3134694 L6.44081633,8.00816327 C6.44081633,7.86122449 6.55836736,7.74857144 6.70530614,7.74857144 L7.85142857,7.74857144 C7.99346937,7.74857144 8.11591838,7.86122449 8.11591838,8.00816327 L8.11591838,18.3183674 C8.11591838,20.1110204 7.13632653,21.1395918 5.4367347,21.1395918 C4.91265306,21.1395918 4.50122449,21.1395918 3.35510204,20.5714286 L0.984489796,19.204898 C0.396734694,18.8669388 0.0342857143,18.235102 0.0342857143,17.5542857 L0.0342857143,7.11673469 C0.0342857143,6.44081633 0.396734694,5.80408164 0.984489796,5.46612246 L10.0212245,0.244897959 C10.5942857,-0.0783673471 11.3534694,-0.0783673471 11.9216326,0.244897959 L20.9681633,5.4710204 C21.5559184,5.80897958 21.9183673,6.44081633 21.9183673,7.12163268 L21.9183673,17.5591837 C21.9183673,18.235102 21.5559184,18.8669388 20.9681633,19.2097959 L11.9216326,24.4310204 C11.6326531,24.597551 11.3044898,24.6857143 10.9714285,24.6857143 Z M18.2742857,14.395102 C18.2742857,12.4408164 16.9518367,11.9216326 14.1746939,11.5542857 C11.3632653,11.1820408 11.0791837,10.9910204 11.0791837,10.3346939 C11.0791837,9.79102043 11.3191836,9.06612242 13.4008163,9.06612242 C15.2571428,9.06612242 15.9428571,9.4677551 16.2269388,10.7216326 C16.2514285,10.8391837 16.3591837,10.9273469 16.4816327,10.9273469 L17.6571429,10.9273469 C17.7306122,10.9273469 17.7991837,10.8979592 17.8481632,10.8440817 C17.8971428,10.7902041 17.9216327,10.7167347 17.9167347,10.6432653 C17.7355102,8.48326532 16.3004081,7.4791837 13.4008163,7.4791837 C10.8195918,7.4791837 9.28163264,8.5665306 9.28163264,10.3934694 C9.28163264,12.3722449 10.8146939,12.9208163 13.2881633,13.1657143 C16.2514285,13.4546939 16.4816327,13.8906123 16.4816327,14.4734694 C16.4816327,15.482449 15.6685714,15.9134694 13.7632653,15.9134694 C11.3681632,15.9134694 10.8440817,15.3110204 10.6677551,14.1208163 C10.6481633,13.9934694 10.5404082,13.9004082 10.4081633,13.9004082 L9.23755103,13.9004082 C9.09061225,13.9004082 8.9779592,14.0179592 8.9779592,14.16 C8.9779592,15.6832653 9.80571429,17.5004081 13.7681633,17.5004081 C16.6285714,17.4955102 18.2742857,16.3640816 18.2742857,14.395102 L18.2742857,14.395102 Z" id="Shape"></path>
                                </g>
                            </g>
                        </g>
                    </g>
                </g>
            </g>
        </g>
    </g>
</svg>