<?xml version="1.0" encoding="UTF-8"?>
<svg width="22px" height="20px" viewBox="0 0 22 20" version="1.1" xmlns="http://www.w3.org/2000/svg" xmlns:xlink="http://www.w3.org/1999/xlink">
    <!-- Generator: Sketch 55.1 (78136) - https://sketchapp.com -->
    <title>react-brands</title>
    <desc>Created with Sketch.</desc>
    <g id="Page-1" stroke="none" stroke-width="1" fill="none" fill-rule="evenodd" opacity="0.95">
        <g id="Desktop-" transform="translate(-899.000000, -392.000000)" fill="#FFFFFF" fill-rule="nonzero">
            <g id="Top" transform="translate(-2.000000, -370.000000)">
                <g id="Group-2" transform="translate(505.000000, 447.000000)">
                    <g id="Group-17">
                        <g id="Group-6" transform="translate(10.000000, 315.000000)">
                            <g id="Group-16">
                                <g id="Group-15" transform="translate(379.000000, 0.000000)">
                                    <g id="react-brands" transform="translate(7.000000, 0.000000)">
                                        <path d="M17.9695312,6.2442567 C17.7375,6.16691295 17.5054688,6.09386608 17.2734375,6.02511608 C17.3121094,5.8661317 17.3464844,5.70714733 17.3808594,5.54816295 C17.909375,2.98722544 17.5613281,0.929022311 16.3882813,0.250116062 C15.2582031,-0.398712063 13.4148437,0.275897312 11.55,1.90011606 C11.3652344,2.05910044 11.1847656,2.22667856 11.0128906,2.39425669 C10.896875,2.28253794 10.7765625,2.17081919 10.65625,2.06339731 C8.70117188,0.327459812 6.74179688,-0.403008938 5.56875,0.280194187 C4.44296875,0.933319186 4.1078125,2.87120981 4.58046875,5.29464733 C4.62773438,5.53527233 4.67929687,5.77160045 4.73945312,6.01222545 C4.46445312,6.0895692 4.19375,6.1755067 3.94023438,6.26574108 C1.64570313,7.06066295 0,8.31535045 0,9.6130067 C0,10.9536317 1.753125,12.2985536 4.13789062,13.1149598 C4.33125,13.179413 4.52460937,13.2438661 4.72226562,13.2997255 C4.6578125,13.557538 4.60195313,13.8110536 4.55039062,14.073163 C4.09921875,16.4579286 4.4515625,18.3485536 5.57734375,18.9973817 C6.7375,19.6676942 8.68828125,18.9801942 10.5875,17.3173036 C10.7378906,17.1841005 10.8882813,17.0466005 11.0386719,16.9005067 C11.2277344,17.0852723 11.4253906,17.2614442 11.6230469,17.4333192 C13.4621094,19.0145692 15.2796875,19.6548036 16.4011719,19.0059755 C17.5613281,18.3356629 17.9394531,16.3032411 17.4496094,13.8282411 C17.4109375,13.6391786 17.3679687,13.4458192 17.3207031,13.248163 C17.4582031,13.2094911 17.5914063,13.1665223 17.7246094,13.1235536 C20.2039062,12.3028505 22,10.9751161 22,9.6130067 C22,8.31105358 20.3070312,7.04777232 17.9695312,6.2442567 Z M12.1558594,2.59620981 C13.7542969,1.20402231 15.2453125,0.658319186 15.9242187,1.04933481 C16.6503906,1.46613169 16.9296875,3.15050669 16.4742187,5.36339733 C16.4441406,5.50949108 16.4140625,5.65128795 16.3753906,5.79308483 C15.4214844,5.57824108 14.4546875,5.42355358 13.4835937,5.33761608 C12.925,4.53839731 12.3148437,3.77355356 11.653125,3.05597544 C11.8207031,2.89699106 11.9839844,2.74660044 12.1558594,2.59620981 L12.1558594,2.59620981 Z M7.184375,11.8430848 C7.40351562,12.216913 7.62695312,12.5907411 7.86328125,12.9559755 C7.19296875,12.8829286 6.52695312,12.7755067 5.86953125,12.6337098 C6.05859375,12.0149598 6.29492187,11.3747255 6.56992187,10.7216005 C6.76757812,11.0997255 6.96953125,11.4735536 7.184375,11.8430848 L7.184375,11.8430848 Z M5.88242187,6.6739442 C6.50117187,6.5364442 7.15859375,6.42472545 7.84179688,6.33878795 C7.6140625,6.69542858 7.390625,7.06066295 7.18007813,7.4301942 C6.96953125,7.79542858 6.76328125,8.1692567 6.56992187,8.5473817 C6.29921875,7.90714733 6.07148437,7.27980357 5.88242187,6.6739442 Z M7.05976562,9.63449108 C7.34335938,9.04152233 7.65273437,8.4614442 7.97929688,7.88995983 C8.30585938,7.31847545 8.65820312,6.76417858 9.02773437,6.21847545 C9.67226562,6.17120983 10.3296875,6.14542858 11,6.14542858 C11.6703125,6.14542858 12.3320313,6.17120983 12.9722656,6.21847545 C13.3375,6.7598817 13.6855469,7.31417858 14.0164063,7.88136608 C14.3472656,8.44855358 14.6566406,9.0286317 14.9488281,9.61730358 C14.6609375,10.2102723 14.3515625,10.7946473 14.0207031,11.3704286 C13.6941406,11.941913 13.3460938,12.4962098 12.9808594,13.0462098 C12.340625,13.0934755 11.6746094,13.1149598 11,13.1149598 C10.3253906,13.1149598 9.67226562,13.0934755 9.040625,13.0548036 C8.66679688,12.5091005 8.31445312,11.9505067 7.98359375,11.3790223 C7.65273437,10.807538 7.34765625,10.2274598 7.05976562,9.63449108 Z M14.8199219,11.8344911 C15.0390625,11.4563661 15.2453125,11.0739442 15.4472656,10.6872255 C15.7222656,11.3102723 15.9628906,11.941913 16.1734375,12.5907411 C15.5074219,12.7411317 14.8328125,12.8571473 14.1539063,12.9344911 C14.3859375,12.5735536 14.6050781,12.2040223 14.8199219,11.8344911 Z M15.4386719,8.5473817 C15.2367187,8.1692567 15.0304688,7.7911317 14.815625,7.42160045 C14.6050781,7.05636608 14.3859375,6.69542858 14.1582031,6.33878795 C14.85,6.42472545 15.5117188,6.54074107 16.1304688,6.68253795 C15.9328125,7.31847545 15.7007813,7.93722545 15.4386719,8.5473817 L15.4386719,8.5473817 Z M11.0085938,3.71339731 C11.4597656,4.20324106 11.8851563,4.71886607 12.2804688,5.25167857 C11.4296875,5.2130067 10.5746094,5.2130067 9.72382813,5.25167857 C10.1449219,4.6973817 10.5789063,4.18175669 11.0085938,3.71339731 Z M6.02421875,1.07941294 C6.74609375,0.658319186 8.34882812,1.25988169 10.0375,2.75519419 C10.1449219,2.84972544 10.2523437,2.95285044 10.3640625,3.05597544 C9.69804687,3.77355356 9.08359375,4.53839731 8.52070312,5.33761607 C7.54960938,5.42355357 6.58710937,5.5739442 5.63320313,5.78449107 C5.57734375,5.56535045 5.53007813,5.34191295 5.4828125,5.11847545 C5.07890625,3.03878794 5.3453125,1.47042856 6.02421875,1.07941294 L6.02421875,1.07941294 Z M4.97148438,12.4059755 C4.79101562,12.354413 4.61484375,12.2985536 4.43867187,12.2383973 C3.5234375,11.9505067 2.48359375,11.495038 1.73164063,10.8977723 C1.29765625,10.5969911 1.00546875,10.1329286 0.923828125,9.6130067 C0.923828125,8.82667858 2.28164063,7.82120983 4.24101563,7.1380067 C4.4859375,7.0520692 4.73515625,6.97472545 4.984375,6.90167857 C5.2765625,7.83410045 5.62890625,8.74933483 6.03710938,9.63449108 C5.62460937,10.532538 5.26796875,11.460663 4.97148438,12.4059755 L4.97148438,12.4059755 Z M9.98164063,16.6169129 C9.27265625,17.2657411 8.45195313,17.7813661 7.55820313,18.1337098 C7.08125,18.3614442 6.53125,18.3829286 6.04140625,18.1895692 C5.35820313,17.7942567 5.07460938,16.2774598 5.46132813,14.2364442 C5.50859375,13.9958192 5.56015625,13.7551942 5.6203125,13.5188661 C6.5828125,13.7251161 7.55390625,13.866913 8.53789063,13.9399598 C9.10507813,14.7434755 9.728125,15.5126161 10.3941406,16.2344911 C10.2566406,16.3676942 10.1191406,16.4966005 9.98164063,16.6169129 Z M11.034375,15.5727723 C10.5960938,15.1001161 10.1578125,14.5758973 9.73242188,14.0130067 C10.1449219,14.0301942 10.5703125,14.038788 11,14.038788 C11.4425781,14.038788 11.8765625,14.0301942 12.30625,14.0087098 C11.9109375,14.554413 11.4855469,15.0743348 11.034375,15.5727723 L11.034375,15.5727723 Z M16.6503906,16.8618348 C16.6117187,17.3860536 16.3539062,17.8758973 15.9414062,18.2067567 C15.2582031,18.6020692 13.8015625,18.0864442 12.2289063,16.7372255 C12.0484375,16.582538 11.8679688,16.4149598 11.6832031,16.2430848 C12.340625,15.516913 12.9464844,14.7477723 13.4964844,13.9399598 C14.4804688,13.8583192 15.4601563,13.7079286 16.4269531,13.488788 C16.4699219,13.6649598 16.5085937,13.8411317 16.5429688,14.0130067 C16.7535156,14.9411317 16.7878906,15.9079286 16.6503906,16.8618348 L16.6503906,16.8618348 Z M17.4324219,12.2426942 C17.3121094,12.2813661 17.1917969,12.320038 17.0671875,12.354413 C16.7664063,11.4176942 16.396875,10.5024598 15.9714844,9.6130067 C16.3839844,8.7364442 16.7320313,7.83410045 17.0242188,6.91027233 C17.2476563,6.97472545 17.4625,7.04347545 17.66875,7.11222545 C19.6710938,7.79972545 21.0761719,8.8223817 21.0761719,9.60441295 C21.0761719,10.4466005 19.5765625,11.5337098 17.4324219,12.2426942 Z M11,11.598163 C12.0871094,11.598163 12.9679687,10.7173036 12.9679687,9.6301942 C12.9679687,8.54308483 12.0871094,7.66222545 11,7.66222545 C9.91289062,7.66222545 9.03203125,8.54308483 9.03203125,9.6301942 C9.03203125,10.7173036 9.91289062,11.598163 11,11.598163 Z" id="Shape"></path>
                                    </g>
                                </g>
                            </g>
                        </g>
                    </g>
                </g>
            </g>
        </g>
    </g>
</svg>