<?xml version="1.0" encoding="UTF-8"?>
<svg width="22px" height="17px" viewBox="0 0 22 17" version="1.1" xmlns="http://www.w3.org/2000/svg" xmlns:xlink="http://www.w3.org/1999/xlink">
    <!-- Generator: Sketch 55.1 (78136) - https://sketchapp.com -->
    <title>sass-brands</title>
    <desc>Created with Sketch.</desc>
    <g id="Page-1" stroke="none" stroke-width="1" fill="none" fill-rule="evenodd" fill-opacity="0.95" opacity="0.95">
        <g id="Desktop-" transform="translate(-631.000000, -466.000000)" fill="#FFFFFF" fill-rule="nonzero">
            <g id="Top" transform="translate(-2.000000, -370.000000)">
                <g id="Group-2" transform="translate(505.000000, 447.000000)">
                    <g id="Group-17">
                        <g id="Group-6" transform="translate(10.000000, 315.000000)">
                            <g id="Group-16-Copy" transform="translate(0.000000, 73.000000)">
                                <g id="Group-13" transform="translate(113.000000, 1.000000)">
                                    <g id="sass-brands" transform="translate(5.000000, 0.000000)">
                                        <path d="M18.9394713,9.48460413 C18.2480976,9.4843801 17.5659334,9.64315969 16.9457213,9.94866663 C16.7429088,9.53960413 16.5332213,9.18210413 16.4988463,8.91397913 C16.4575963,8.60116663 16.4129088,8.41554163 16.4610338,8.04429163 C16.5091588,7.67304163 16.7257213,7.14710413 16.7222838,7.10929163 C16.7188463,7.07147913 16.6741588,6.88241663 16.2307213,6.87897913 C15.7872838,6.87554163 15.4057213,6.96491663 15.3613775,7.08179163 C15.2830599,7.29538033 15.2221324,7.51494926 15.17919,7.73835413 C15.1001275,8.14054163 14.2926588,9.57741663 13.8354713,10.3267916 C13.6842213,10.0346041 13.5570338,9.77679163 13.5295338,9.57054163 C13.4882838,9.25772913 13.4435963,9.07210413 13.4917213,8.70085413 C13.5398463,8.32960413 13.7564088,7.80366663 13.7529713,7.76585413 C13.7495338,7.72804163 13.7048463,7.53897913 13.2617525,7.53554163 C12.8186588,7.53210413 12.4367525,7.62147913 12.392065,7.73835413 C12.3473775,7.85522913 12.2992525,8.13022913 12.2098775,8.39491663 C12.1205025,8.65960413 11.0449088,11.0521041 10.7633775,11.6742916 C10.6190025,11.9905416 10.4952525,12.2449166 10.4058775,12.4167916 C10.3921275,12.4442916 10.381815,12.4614791 10.37494,12.4752291 C10.3852525,12.4580416 10.3921275,12.4408541 10.3921275,12.4477291 C10.3165025,12.5955416 10.271815,12.6780416 10.271815,12.6780416 L10.271815,12.6814791 C10.2133775,12.7914791 10.148065,12.8911666 10.1171275,12.8911666 C10.0965025,12.8911666 10.051815,12.6024166 10.12744,12.2071041 C10.2890025,11.3752291 10.670565,10.0827291 10.6671275,10.0380416 C10.66369,10.0139791 10.739315,9.79054163 10.41619,9.67022913 C10.1033775,9.55679163 9.98994002,9.74585413 9.96244002,9.74585413 C9.93494002,9.74585413 9.91431502,9.81460413 9.91431502,9.81460413 C9.91431502,9.81460413 10.2615025,8.35710413 9.24778377,8.35710413 C8.61528377,8.35710413 7.73528377,9.05147913 7.30284627,9.68054163 C7.03128377,9.82835413 6.44347127,10.1480416 5.82472127,10.4883541 C5.58753377,10.6189791 5.34347127,10.7530416 5.11315877,10.8802291 C5.09597127,10.8630416 5.08222127,10.8458541 5.06503377,10.8286666 C3.83475252,9.51554163 1.56325252,8.58741663 1.65950252,6.82397913 C1.69387752,6.18116663 1.91731502,4.49335413 6.02753377,2.44460413 C9.39628377,0.767104131 12.089565,1.22772913 12.5532838,2.25210413 C13.2201588,3.71304163 11.113315,6.43210413 7.61497127,6.82397913 C6.28156502,6.97179163 5.58065877,6.45616663 5.40534627,6.26366663 C5.22315877,6.06085413 5.19565877,6.05054163 5.12690877,6.08835413 C5.01347127,6.15022913 5.08565877,6.32897913 5.12690877,6.43554163 C5.23003377,6.70710413 5.65972127,7.18835413 6.39156502,7.42897913 C7.03437752,7.63866663 8.59775252,7.75554163 10.4880338,7.02335413 C12.6117213,6.20522913 14.264815,3.92616663 13.7801275,2.01835413 C13.2865025,0.0796041313 10.0717525,-0.556333369 7.03197127,0.523041631 C5.22075252,1.16585413 3.26206502,2.17647913 1.85303377,3.49304163 C0.179315022,5.06054163 -0.088466228,6.42522913 0.021533772,6.99585413 C0.413065022,9.02054163 3.20362752,10.3405416 4.32047127,11.3167916 C4.26547127,11.3477291 4.21390877,11.3752291 4.16578377,11.4027291 C3.60581502,11.6811666 1.47834627,12.7949166 0.945877522,13.9705416 C0.344315022,15.3042916 1.04556502,16.2599166 1.50584627,16.3905416 C2.94237752,16.7892916 4.41328377,16.0708541 5.20356502,14.8917916 C5.99384627,13.7127291 5.89794002,12.1727291 5.53356502,11.4714791 C5.53012752,11.4611666 5.52325252,11.4542916 5.51981502,11.4439791 C5.66419002,11.3580416 5.81200252,11.2721041 5.95981502,11.1861666 C6.24478377,11.0177291 6.52322127,10.8630416 6.76728377,10.7289791 C6.62978377,11.1002291 6.53009627,11.5471041 6.47853377,12.1933541 C6.41665877,12.9496041 6.72947127,13.9292916 7.13509627,14.3142916 C7.31384627,14.4827291 7.53006502,14.4861666 7.66412752,14.4861666 C8.13850252,14.4861666 8.35162752,14.0942916 8.58847127,13.6267916 C8.88065877,13.0561666 9.13847127,12.3927291 9.13847127,12.3927291 C9.13847127,12.3927291 8.81534627,14.1871041 9.69878377,14.1871041 C10.021565,14.1871041 10.34469,13.7711666 10.4894088,13.5580416 L10.4894088,13.5614791 C10.4894088,13.5614791 10.4962838,13.5477291 10.5134713,13.5202291 C10.5478463,13.4686666 10.5650338,13.4377291 10.5650338,13.4377291 L10.5650338,13.4274166 C10.6956588,13.2039791 10.9809713,12.6917916 11.410315,11.8461666 C11.96719,10.7530416 12.4996588,9.38835413 12.4996588,9.38835413 C12.5511121,9.6883459 12.6223084,9.98461477 12.7127838,10.2752291 C12.8090338,10.6017916 13.0118463,10.9592916 13.1734088,11.3064791 C13.0427838,11.4852291 12.9637213,11.5883541 12.9637213,11.5883541 C12.9639719,11.5909936 12.9651976,11.5934449 12.9671588,11.5952291 C12.8640338,11.7327291 12.7471588,11.8805416 12.6268463,12.0249166 C12.18719,12.5474166 11.6643463,13.1455416 11.5955963,13.3174166 C11.5130963,13.5202291 11.5337213,13.6714791 11.6918463,13.7883541 C11.8087213,13.8777291 12.0149713,13.8914791 12.23119,13.8742916 C12.6265025,13.8467916 12.90494,13.7505416 13.0390025,13.6886666 C13.2861516,13.600043 13.5197425,13.4774049 13.7330338,13.3242916 C14.1627213,13.0080416 14.4239713,12.5542916 14.3999088,11.9561666 C14.3861588,11.6261666 14.2795963,11.2961666 14.1489713,10.9867916 C14.1867838,10.9317916 14.2280338,10.8733541 14.2658463,10.8149166 C14.9461275,9.82147913 15.472065,8.73110413 15.472065,8.73110413 C15.5235183,9.0310959 15.5947147,9.32736477 15.68519,9.61797913 C15.76769,9.89641663 15.9289088,10.2023541 16.0767213,10.5014166 C15.43769,11.0204791 15.0423775,11.6220416 14.9048775,12.0173541 C14.6505025,12.7495416 14.8498775,13.0795416 15.224565,13.1551666 C15.3930025,13.1895416 15.6336275,13.1104791 15.8123775,13.0348541 C16.0778463,12.9464305 16.3281522,12.8177415 16.5545338,12.6532916 C16.9842213,12.3370416 17.399815,11.8936041 17.372315,11.2920416 C17.3620025,11.0204791 17.2863775,10.7489166 17.18669,10.4876666 C17.7263775,10.2607916 18.4272838,10.1370416 19.3210338,10.2401666 C21.2350338,10.4636041 21.6097213,11.6598541 21.5375338,12.1582916 C21.4653463,12.6567291 21.0631588,12.9351666 20.9290963,13.0176666 C20.7950338,13.1001666 20.7537838,13.1311041 20.7640963,13.1929791 C20.7812838,13.2823541 20.8431588,13.2789166 20.9565963,13.2582916 C21.1147213,13.2307916 21.9600025,12.8526666 21.997815,11.9279791 C22.052815,10.7592291 20.9290963,9.47360413 18.93844,9.48391663 L18.9394713,9.48460413 Z M4.18640877,14.4586666 C3.55425252,15.1496041 2.66737752,15.4108541 2.28615877,15.1908541 C1.87709627,14.9529791 2.03865877,13.9361666 2.81862752,13.1998541 C3.29300252,12.7529791 3.90453377,12.3404791 4.31015877,12.0861041 C4.40297127,12.0311041 4.53703377,11.9486041 4.70203377,11.8489166 C4.72953377,11.8317291 4.74328377,11.8248541 4.74328377,11.8248541 C4.77422127,11.8042291 4.80859627,11.7870416 4.84297127,11.7664166 C5.12794002,12.8114166 4.85328377,13.7326666 4.18640877,14.4579791 L4.18640877,14.4586666 Z M8.80503377,11.3167916 C8.58503377,11.8564791 8.12131502,13.2314791 7.83944002,13.1592916 C7.59881502,13.0974166 7.45100252,12.0489791 7.79131502,11.0177291 C7.96319002,10.4986666 8.32756502,9.87991663 8.54412752,9.63929163 C8.89097127,9.25085413 9.27253377,9.12710413 9.36190877,9.28179163 C9.48222127,9.48460413 8.94253377,10.9799166 8.80503377,11.3167916 Z M12.6206588,13.1386666 C12.5278463,13.1867916 12.4419088,13.2177291 12.4006588,13.1936666 C12.3697213,13.1764791 12.4384713,13.1111666 12.4384713,13.1111666 C12.4384713,13.1111666 12.9162838,12.5989791 13.1053463,12.3652291 C13.2153463,12.2277291 13.3425338,12.0661666 13.47969,11.8874166 C13.47969,11.9046041 13.4831275,11.9217916 13.4831275,11.9424166 C13.4786588,12.5577291 12.8877525,12.9736666 12.6196275,13.1386666 L12.6206588,13.1386666 Z M15.5624713,12.4683541 C15.4937213,12.4202291 15.5040338,12.2586666 15.7343463,11.7567916 C15.8237213,11.5608541 16.0296275,11.2308541 16.3874713,10.9146041 C16.4279784,11.0343169 16.4500021,11.1595045 16.4527838,11.2858541 C16.4493463,12.0592916 15.8959088,12.3480416 15.562815,12.4683541 L15.5624713,12.4683541 Z" id="Shape"></path>
                                    </g>
                                </g>
                            </g>
                        </g>
                    </g>
                </g>
            </g>
        </g>
    </g>
</svg>