<?xml version="1.0" encoding="UTF-8"?>
<svg width="14px" height="12px" viewBox="0 0 14 12" version="1.1" xmlns="http://www.w3.org/2000/svg" xmlns:xlink="http://www.w3.org/1999/xlink">
    <!-- Generator: Sketch 55.1 (78136) - https://sketchapp.com -->
    <title>79</title>
    <desc>Created with Sketch.</desc>
    <g id="Page-1" stroke="none" stroke-width="1" fill="none" fill-rule="evenodd">
        <g id="Tablet-Landscape" transform="translate(-462.000000, -559.000000)" fill="#000000" fill-rule="nonzero">
            <g id="Top" transform="translate(-208.000000, -368.000000)">
                <g id="Group-5" transform="translate(630.000000, 914.000000)">
                    <g id="Group-7" transform="translate(40.000000, 10.000000)">
                        <path d="M0.611648447,8.75985337 L3.54101816,10.4332699 L4.4653127,10.9615781 L4.4653127,13.9334477 C4.4653127,14.6617571 4.75977409,14.8791768 4.93508205,14.9440295 C4.98454783,14.9625366 5.04925778,14.9777778 5.12734527,14.9777778 C5.3255195,14.9777778 5.6097144,14.8791768 5.94975275,14.4825958 L7.48863628,12.6886497 L9.93408133,14.0855482 C10.0832564,14.1707742 10.244098,14.2141648 10.4013618,14.2141648 C10.5074488,14.2141648 10.6115136,14.1944135 10.7092008,14.1545999 C10.9520186,14.0558435 11.1368153,13.8404455 11.2161472,13.5634609 L12.8160074,7.96451395 L13.9523204,3.98874997 C14.0831403,3.53042669 13.9151433,3.28252464 13.8033009,3.17552552 C13.6913029,3.0685264 13.4365074,2.91144919 12.9840044,3.06230552 L5.48060561,5.56309901 L0.772801114,7.13216029 C0.146545674,7.34102632 0.0216368019,7.68877347 0.00297046988,7.87773268 C-0.0156958622,8.06669189 0.0384365008,8.43247959 0.611648447,8.75985337 Z M5.57378171,14.1603542 C5.31105309,14.4673546 5.14818934,14.4959707 5.10696786,14.4801074 C5.06621304,14.4648663 4.96043715,14.3374938 4.96043715,13.9336032 L4.96043715,11.2443171 L7.05075524,12.4385704 L5.57378171,14.1603542 Z M13.4640403,3.8941926 L12.3395493,7.82874326 L10.7398447,13.4280012 C10.7022009,13.5592618 10.6250467,13.6547523 10.5225374,13.6964322 C10.4203393,13.7381121 10.2985415,13.7239595 10.1795436,13.6559964 L5.02514711,10.7108766 L13.4640403,3.8941926 Z M0.929598303,7.60168116 L5.63724724,6.03261987 L13.1129577,3.54131322 L4.5637776,10.4474224 L3.78679153,10.0034071 L0.857577372,8.33030165 C0.57696018,8.16995849 0.486739575,8.01661381 0.495761636,7.92641106 C0.504628143,7.83651936 0.623314905,7.70354806 0.929598303,7.60168116 Z" id="79"></path>
                    </g>
                </g>
            </g>
        </g>
    </g>
</svg>